<svg width="48" height="48" viewBox="0 0 48 48" fill="none" xmlns="http://www.w3.org/2000/svg">
<g clip-path="url(#clip0_254_486)">
<path d="M28.3638 19.6362H19.6362V28.3638H28.3638V19.6362Z" fill="#0064FF"/>
<path d="M36.8735 29.4552H30.7645C30.0414 29.4552 29.4552 30.0414 29.4552 30.7645V36.8735C29.4552 37.5966 30.0414 38.1828 30.7645 38.1828H36.8735C37.5966 38.1828 38.1828 37.5966 38.1828 36.8735V30.7645C38.1828 30.0414 37.5966 29.4552 36.8735 29.4552Z" fill="#BD2EFF"/>
<path d="M42.9824 48.0001C45.7536 48.0001 48.0001 45.7536 48.0001 42.9824C48.0001 40.2113 45.7536 37.9648 42.9824 37.9648C40.2113 37.9648 37.9648 40.2113 37.9648 42.9824C37.9648 45.7536 40.2113 48.0001 42.9824 48.0001Z" fill="#FF7828"/>
<path d="M47.1282 -0.000107773H0.873423C0.641777 -0.000107773 0.419618 0.0919133 0.25582 0.255712C0.0920211 0.419511 0 0.641669 0 0.873315L0 47.1231C-2.08723e-07 47.2378 0.0226035 47.3513 0.0665175 47.4571C0.110432 47.563 0.174794 47.6592 0.25592 47.7402C0.337047 47.8211 0.433345 47.8853 0.539304 47.929C0.645263 47.9727 0.758802 47.9951 0.873423 47.9949H27.492C27.6065 47.9949 27.7199 47.9724 27.8256 47.9285C27.9314 47.8847 28.0275 47.8205 28.1085 47.7396C28.1894 47.6586 28.2536 47.5625 28.2974 47.4568C28.3412 47.351 28.3638 47.2376 28.3638 47.1231V40.1358C28.3638 40.0213 28.3412 39.9079 28.2974 39.8022C28.2536 39.6964 28.1894 39.6003 28.1085 39.5193C28.0275 39.4384 27.9314 39.3742 27.8256 39.3304C27.7199 39.2866 27.6065 39.264 27.492 39.264H8.72757V8.72747H39.2741V27.5385C39.2739 27.6531 39.2963 27.7667 39.34 27.8726C39.3837 27.9786 39.4479 28.0749 39.5288 28.156C39.6098 28.2371 39.706 28.3015 39.8119 28.3454C39.9177 28.3893 40.0312 28.4119 40.1458 28.4119H47.1332C47.2479 28.4119 47.3613 28.3893 47.4672 28.3454C47.5731 28.3015 47.6693 28.2371 47.7502 28.156C47.8312 28.0749 47.8954 27.9786 47.9391 27.8726C47.9828 27.7667 48.0052 27.6531 48.005 27.5385V0.873315C48.0052 0.758273 47.9827 0.644325 47.9386 0.538039C47.8946 0.431753 47.83 0.335232 47.7485 0.25404C47.667 0.172847 47.5702 0.108589 47.4638 0.0649701C47.3573 0.021351 47.2433 -0.000766625 47.1282 -0.000107773V-0.000107773Z" fill="white"/>
</g>
<defs>
<clipPath id="clip0_254_486">
<rect width="48" height="48" fill="white"/>
</clipPath>
</defs>
</svg>
