<svg width="48" height="48" xmlns="http://www.w3.org/2000/svg" fill="none">
 <defs>
  <linearGradient y2="0.92308" x2="1" y1="0.07692" x1="1" id="paint0_linear">
   <stop stop-color="#39CDEE"/>
   <stop stop-opacity="0.4" stop-color="#38CCED" offset="1"/>
  </linearGradient>
 </defs>
 <g>
  <title>Layer 1</title>
  <path id="svg_1" fill="#040531" d="m27,8c0,1.10457 -0.8954,2 -2,2c-1.1046,0 -2,-0.89543 -2,-2c0,-1.10457 0.8954,-2 2,-2c1.1046,0 2,0.89543 2,2zm-0.5166,4.7763c2.0371,-0.632 3.5166,-2.5314 3.5166,-4.7763c0,-2.76142 -2.2386,-5 -5,-5c-2.7614,0 -5,2.23858 -5,5c0,2.2449 1.4795,4.1443 3.5166,4.7763c-0.0109,0.073 -0.0166,0.1477 -0.0166,0.2237l0,3.65c-3.4234,0.6949 -6,3.7216 -6,7.35c0,3.6284 2.5766,6.6551 6,7.35l0,3.65c0,0.076 0.0057,0.1507 0.0166,0.2237c-2.0371,0.632 -3.5166,2.5314 -3.5166,4.7763c0,2.7614 2.2386,5 5,5c2.7614,0 5,-2.2386 5,-5c0,-2.2449 -1.4795,-4.1443 -3.5166,-4.7763c0.0109,-0.073 0.0166,-0.1477 0.0166,-0.2237l0,-3.65c1.7193,-0.349 3.225,-1.2861 4.298,-2.5922l4.392,2.7086c-0.0894,0.6503 -0.0514,1.329 0.1333,2.002c0.7309,2.663 3.4821,4.2293 6.145,3.4984c2.663,-0.7308 4.2293,-3.482 3.4984,-6.145c-0.7308,-2.6629 -3.482,-4.2292 -6.145,-3.4984c-0.9304,0.2554 -1.7269,0.7573 -2.3384,1.416l-4.281,-2.6403c0.1938,-0.6661 0.2977,-1.3704 0.2977,-2.0991c0,-0.6814 -0.0909,-1.3416 -0.2612,-1.9692l4.337,-2.3828c0.6016,0.6078 1.3672,1.0693 2.2526,1.3075c2.6666,0.7173 5.4098,-0.863 6.1271,-3.5296c0.7173,-2.6667 -0.863,-5.4099 -3.5296,-6.1272c-2.6667,-0.7172 -5.4099,0.863 -6.1271,3.5297c-0.1954,0.726 -0.2203,1.4578 -0.0994,2.1528l-4.3135,2.37c-1.078,-1.3629 -2.6192,-2.3425 -4.3859,-2.7012l0,-3.65c0,-0.076 -0.0057,-0.1507 -0.0166,-0.2237zm-1.4834,15.7237c2.4853,0 4.5,-2.0147 4.5,-4.5c0,-2.4853 -2.0147,-4.5 -4.5,-4.5c-2.4853,0 -4.5,2.0147 -4.5,4.5c0,2.4853 2.0147,4.5 4.5,4.5zm0,13.5c1.1046,0 2,-0.8954 2,-2c0,-1.1046 -0.8954,-2 -2,-2c-1.1046,0 -2,0.8954 -2,2c0,1.1046 0.8954,2 2,2zm15.6466,-27.8042c1.0667,0.2869 1.6988,1.3842 1.4119,2.4508c-0.2869,1.0667 -1.3842,1.6988 -2.4509,1.4119c-1.0666,-0.2869 -1.6987,-1.3842 -1.4118,-2.4509c0.2869,-1.0666 1.3842,-1.6988 2.4508,-1.4118zm0.0277,19.878c1.0652,-0.2923 1.6917,-1.3928 1.3994,-2.458c-0.2923,-1.0652 -1.3928,-1.6917 -2.458,-1.3994c-1.0652,0.2924 -1.6917,1.3929 -1.3994,2.458c0.2924,1.0652 1.3929,1.6917 2.458,1.3994z" clip-rule="evenodd" fill-rule="evenodd"/>
  <path id="svg_2" fill="url(#paint0_linear)" d="m10,24c0,-5.1542 3.7568,-9 8,-9l0,-4c-6.8025,0 -12,6.0039 -12,13c0,6.9961 5.1975,13 12,13l0,-4c-4.2432,0 -8,-3.8458 -8,-9z" clip-rule="evenodd" fill-rule="evenodd"/>
 </g>
</svg>