<svg xmlns="http://www.w3.org/2000/svg" width="327" height="72" viewBox="0 0 327 72">
  <g id="Grupo_164" data-name="Grupo 164" transform="translate(-24 -121)">
    <g id="Grupo_160" data-name="Grupo 160" transform="translate(-3287 -433)">
      <rect id="Rectángulo_328" data-name="Rectángulo 328" width="72" height="72" rx="8" transform="translate(3311 554)" fill="#0064ff"/>
      <g id="mobile_phone_smart_smartphone_gesture_touch_swipe" data-name="mobile; phone; smart; smartphone; gesture; touch; swipe" transform="translate(3327 566)">
        <path id="Trazado_855" data-name="Trazado 855" d="M32,0H8A4.005,4.005,0,0,0,4,4V44a4.005,4.005,0,0,0,4,4H32a4.005,4.005,0,0,0,4-4V4A4.005,4.005,0,0,0,32,0ZM8,2H32a2,2,0,0,1,2,2V38H6V4A2,2,0,0,1,8,2ZM32,46H8a2,2,0,0,1-2-2V40H34v4A2,2,0,0,1,32,46Z" fill="#fff"/>
        <path id="Trazado_856" data-name="Trazado 856" d="M12,4h2a1,1,0,0,0,0-2H12a1,1,0,0,0,0,2Z" transform="translate(6.999 2)" fill="#fff"/>
        <path id="Trazado_857" data-name="Trazado 857" d="M17,21H11a1,1,0,0,0,0,2h6a1,1,0,0,0,0-2Z" transform="translate(5.999 20.998)" fill="#fff"/>
        <circle id="Elipse_102" data-name="Elipse 102" cx="1" cy="1" r="1" transform="translate(30 4)" fill="#fff"/>
        <g id="Wifi_share_wireless_connection_signal_network_sharing_hold_care" data-name="Wifi, share, wireless, connection, signal, network, sharing, hold, care" transform="translate(9.808 13.999)">
          <path id="Trazado_848" data-name="Trazado 848" d="M12.611,8.514a12,12,0,0,1,16.968,0A1,1,0,1,0,30.993,7.1a14,14,0,0,0-19.8,0,1,1,0,0,0,1.414,1.414Z" transform="translate(-10.904 -3)" fill="#fff"/>
          <path id="Trazado_849" data-name="Trazado 849" d="M26.044,9.636a1,1,0,0,0,.707-1.707,10,10,0,0,0-14.14,0,1,1,0,1,0,1.414,1.414,8.192,8.192,0,0,1,11.312,0A1,1,0,0,0,26.044,9.636Z" transform="translate(-9.49 -1)" fill="#fff"/>
          <path id="Trazado_850" data-name="Trazado 850" d="M21.8,10.463a1,1,0,0,0,.707-1.707,6,6,0,0,0-8.484,0,1,1,0,1,0,1.414,1.414,4.005,4.005,0,0,1,5.656,0A1,1,0,0,0,21.8,10.463Z" transform="translate(-8.076 1.001)" fill="#fff"/>
          <path id="Trazado_851" data-name="Trazado 851" d="M15,11a2,2,0,1,0,2-2A2,2,0,0,0,15,11Z" transform="translate(-6.809 2.999)" fill="#fff"/>
        </g>
      </g>
    </g>
    <g id="Grupo_161" data-name="Grupo 161" transform="translate(-3159 -549)">
      <rect id="Rectángulo_329" data-name="Rectángulo 329" width="72" height="72" rx="8" transform="translate(3311 670)" fill="#0064ff"/>
      <g id="symbol_computing_cloud_server_storage" data-name="symbol; computing; cloud; server; storage" transform="translate(3326 682)">
        <path id="Trazado_845" data-name="Trazado 845" d="M12,24H31.982a6.988,6.988,0,0,0,2.9-13.354A11.95,11.95,0,0,0,12.6,6.07c-.2-.013-.4-.039-.6-.039A8.984,8.984,0,1,0,12,24ZM12,8.031a6.976,6.976,0,0,1,3.484.93,1,1,0,0,0,1-1.732,8.9,8.9,0,0,0-1.8-.772,9.947,9.947,0,0,1,18.064,3.62A6.865,6.865,0,0,0,31.982,10a1,1,0,1,0,0,2,5,5,0,0,1,0,10H12A6.984,6.984,0,0,1,12,8.031Z" transform="translate(0.016)" fill="#fff"/>
        <path id="Trazado_846" data-name="Trazado 846" d="M35,15H7a4,4,0,0,0-4,4v2a3.974,3.974,0,0,0,1.382,3A3.974,3.974,0,0,0,3,27v2a4,4,0,0,0,4,4H35a4,4,0,0,0,4-4V27a3.974,3.974,0,0,0-1.382-3A3.974,3.974,0,0,0,39,21V19A4,4,0,0,0,35,15Zm2,12v2a2,2,0,0,1-2,2H7a2,2,0,0,1-2-2V27a2,2,0,0,1,2-2H35A2,2,0,0,1,37,27ZM7,23a2,2,0,0,1-2-2V19a2,2,0,0,1,2-2H35a2,2,0,0,1,2,2v2a2,2,0,0,1-2,2Z" transform="translate(0 14.998)" fill="#fff"/>
        <circle id="Elipse_89" data-name="Elipse 89" cx="1" cy="1" r="1" transform="translate(33 33.998)" fill="#fff"/>
        <circle id="Elipse_90" data-name="Elipse 90" cx="1" cy="1" r="1" transform="translate(33 41.998)" fill="#fff"/>
        <circle id="Elipse_91" data-name="Elipse 91" cx="1" cy="1" r="1" transform="translate(29 33.998)" fill="#fff"/>
        <circle id="Elipse_92" data-name="Elipse 92" cx="1" cy="1" r="1" transform="translate(29 41.998)" fill="#fff"/>
        <circle id="Elipse_93" data-name="Elipse 93" cx="1" cy="1" r="1" transform="translate(25 33.998)" fill="#fff"/>
        <circle id="Elipse_94" data-name="Elipse 94" cx="1" cy="1" r="1" transform="translate(25 41.998)" fill="#fff"/>
        <circle id="Elipse_95" data-name="Elipse 95" cx="2" cy="2" r="2" transform="translate(5.999 32.998)" fill="#fff"/>
        <circle id="Elipse_96" data-name="Elipse 96" cx="2" cy="2" r="2" transform="translate(5.999 40.998)" fill="#fff"/>
      </g>
    </g>
    <g id="Grupo_162" data-name="Grupo 162" transform="translate(-3032 -665)">
      <rect id="Rectángulo_330" data-name="Rectángulo 330" width="72" height="72" rx="8" transform="translate(3311 786)" fill="#434352"/>
      <g id="video_game_play_computer_game_desctop" data-name="video; game; play; computer; game; desctop" transform="translate(3323 799)">
        <path id="Trazado_852" data-name="Trazado 852" d="M44,1H4A4,4,0,0,0,0,5V33a4,4,0,0,0,4,4H18c-.042,1.6-.347,4.147-1.491,5.353A1.965,1.965,0,0,1,15,43a1,1,0,1,0,0,2H33a1,1,0,0,0,0-2,1.957,1.957,0,0,1-1.512-.646C30.347,41.154,30.04,38.6,30,37H44a4,4,0,0,0,4-4V5A4,4,0,0,0,44,1ZM18.537,43a12.183,12.183,0,0,0,1.471-6h7.983a12.183,12.183,0,0,0,1.471,6ZM46,33a2,2,0,0,1-2,2H4a2,2,0,0,1-2-2V29H46Zm0-6H2V5A2,2,0,0,1,4,3H44a2,2,0,0,1,2,2Z" transform="translate(0 0)" fill="#fff"/>
        <circle id="Elipse_97" data-name="Elipse 97" cx="2" cy="2" r="2" transform="translate(22 30)" fill="#fff"/>
        <path id="Trazado_853" data-name="Trazado 853" d="M24.5,5h-12a7,7,0,1,0,4.869,12h2.262A6.991,6.991,0,1,0,24.5,5Zm0,12a4.942,4.942,0,0,1-3.7-1.67,1,1,0,0,0-.742-.33H16.943a1,1,0,0,0-.742.33A4.942,4.942,0,0,1,12.5,17a5,5,0,0,1,0-10h12a5,5,0,0,1,0,10Z" transform="translate(5.5 4)" fill="#fff"/>
        <path id="Trazado_854" data-name="Trazado 854" d="M12.5,9h-1V8a1,1,0,1,0-2,0V9h-1a1,1,0,1,0,0,2h1v1a1,1,0,1,0,2,0V11h1a1,1,0,0,0,0-2Z" transform="translate(7.5 6)" fill="#fff"/>
        <circle id="Elipse_98" data-name="Elipse 98" cx="1" cy="1" r="1" transform="translate(29 13)" fill="#fff"/>
        <circle id="Elipse_99" data-name="Elipse 99" cx="1" cy="1" r="1" transform="translate(27 15)" fill="#fff"/>
        <circle id="Elipse_100" data-name="Elipse 100" cx="1" cy="1" r="1" transform="translate(31 15)" fill="#fff"/>
        <circle id="Elipse_101" data-name="Elipse 101" cx="1" cy="1" r="1" transform="translate(29 17)" fill="#fff"/>
      </g>
    </g>
    <path id="Línea_1" data-name="Línea 1" d="M40.033,2h-.006a2,2,0,0,1-2-2,2,2,0,0,1,2-2h.006a2,2,0,0,1,2,2A2,2,0,0,1,40.033,2ZM32.028,2h-.006a2,2,0,0,1-2-2,2,2,0,0,1,2-2h.006a2,2,0,0,1,2,2A2,2,0,0,1,32.028,2ZM24.022,2h-.005a2,2,0,0,1-2-2,2,2,0,0,1,2-2h.005a2,2,0,0,1,2,2A2,2,0,0,1,24.022,2ZM16.017,2h-.006a2,2,0,0,1-2-2,2,2,0,0,1,2-2h.006a2,2,0,0,1,2,2A2,2,0,0,1,16.017,2ZM8.011,2H8.005a2,2,0,0,1-2-2,2,2,0,0,1,2-2h.005a2,2,0,0,1,2,2A2,2,0,0,1,8.011,2ZM.005,2H0A2,2,0,0,1-2,0,2,2,0,0,1,0-2H.005a2,2,0,0,1,2,2A2,2,0,0,1,.005,2Z" transform="translate(104 157)" fill="#00dd81"/>
    <path id="Línea_3" data-name="Línea 3" d="M40.033,2h-.006a2,2,0,0,1-2-2,2,2,0,0,1,2-2h.006a2,2,0,0,1,2,2A2,2,0,0,1,40.033,2ZM32.028,2h-.006a2,2,0,0,1-2-2,2,2,0,0,1,2-2h.006a2,2,0,0,1,2,2A2,2,0,0,1,32.028,2ZM24.022,2h-.005a2,2,0,0,1-2-2,2,2,0,0,1,2-2h.005a2,2,0,0,1,2,2A2,2,0,0,1,24.022,2ZM16.017,2h-.006a2,2,0,0,1-2-2,2,2,0,0,1,2-2h.006a2,2,0,0,1,2,2A2,2,0,0,1,16.017,2ZM8.011,2H8.005a2,2,0,0,1-2-2,2,2,0,0,1,2-2h.005a2,2,0,0,1,2,2A2,2,0,0,1,8.011,2ZM.005,2H0A2,2,0,0,1-2,0,2,2,0,0,1,0-2H.005a2,2,0,0,1,2,2A2,2,0,0,1,.005,2Z" transform="translate(232 157)" fill="#00dd81"/>
  </g>
</svg>
